# xmcd
#
# Track frame offsets: 
#        150
#        17575
#        40675
#        60325
#
# Disc length: 1182 seconds
#
# Revision: 4
# Processed by: cddbd v1.5.2PL0 Copyright (c) Steve Scherf et al.
# Submitted via: ExactAudioCopy v0.99pb4
#
DISCID=22049c04
DTITLE=Boyz II Men - Can't let her go
DYEAR=1998
DGENRE=R&B
TTITLE0=Can't let her go (Booya Single Version)
TTITLE1=Can't let her go (Timbaland Remix Version)
TTITLE2=Can't let her go (Cutee B Remix Version)
TTITLE3=Can't let her go (Tuff Jam Mix Version)
EXTD=
EXTT0=
EXTT1=
EXTT2=
EXTT3=
PLAYORDER=
